<?xml version="1.0" encoding="utf-8"?>
<!-- Generator: Adobe Illustrator 19.1.0, SVG Export Plug-In . SVG Version: 6.00 Build 0)  -->
<svg version="1.1" xmlns="http://www.w3.org/2000/svg" xmlns:xlink="http://www.w3.org/1999/xlink" x="0px" y="0px"
	 viewBox="0 0 737.8 212.8" style="enable-background:new 0 0 737.8 212.8;" xml:space="preserve">
<style type="text/css">
	.st0{fill:#010101;}
	.st1{fill:#FFFFFF;}
</style>
<g id="Layer_1">
	<g>
		<path class="st0" d="M94.7,14.2C94.7,6.4,88.6,0,81.2,0c-7.4,0-13.5,6.4-13.5,14.2s6.1,14.2,13.5,14.2
			C88.6,28.4,94.7,22,94.7,14.2z M85.7,14.2c0,2.6-2,4.7-4.5,4.7c-2.5,0-4.5-2.1-4.5-4.7s2-4.7,4.5-4.7
			C83.6,9.5,85.7,11.6,85.7,14.2z"/>
		<path class="st0" d="M0,56.7c0,7.8,6.1,14.2,13.5,14.2c7.4,0,13.5-6.4,13.5-14.2S21,42.6,13.5,42.6C6.1,42.6,0,48.9,0,56.7z
			 M9,56.7c0-2.6,2-4.7,4.5-4.7s4.5,2.1,4.5,4.7s-2,4.7-4.5,4.7S9,59.3,9,56.7z"/>
		<path class="st0" d="M22.5,89.8c0,13,10.1,23.6,22.5,23.6s22.5-10.6,22.5-23.6c0-13-10.1-23.6-22.5-23.6S22.5,76.8,22.5,89.8z
			 M31.6,89.8c0-7.8,6.1-14.2,13.5-14.2S58.6,82,58.6,89.8S52.5,104,45.1,104S31.6,97.6,31.6,89.8z"/>
		<path class="st0" d="M47,181.1c-4.5,8-5,15.6-1.6,22c3.4,6.4,10.1,9.7,18.9,9.7h90.2c8.8,0,15.6-3.5,18.9-9.7
			c3.4-6.1,2.9-13.9-1.6-22l-37.7-68.6V59.1c2.5,0,4.5-2.1,4.5-4.7s-2-4.7-4.5-4.7H84.7c-2.5,0-4.5,2.1-4.5,4.7s2,4.7,4.5,4.7v53.4
			L47,181.1z M82.9,134.7L93,116.3c0.5-0.7,0.7-1.4,0.7-2.4V59.1h31.6v54.8c0,0.9,0.2,1.7,0.7,2.4l10.1,18.4H82.9z"/>
		<path class="st0" d="M64,33.1C64,43.5,55.5,52,45.1,52c-10.4,0-18.9-8.5-18.9-18.9s8.5-18.9,18.9-18.9C55.5,14.2,64,22.7,64,33.1z
			 M58,27.8l-4.5-4l-10.6,12l-5.3-5.5l-4.3,4.2l9.8,10.1L58,27.8z"/>
	</g>
	<g>
		<path d="M220.6,160.3h-12.4l-25.4-62.5h13.8l17.8,48.2l17.9-48.2h13.1L220.6,160.3z"/>
		<path d="M252.8,143.5c0-2.8,0.5-5.3,1.4-7.5c1-2.2,2.3-4.1,4-5.7s3.7-2.8,6-3.8c2.3-1,4.9-1.6,7.5-2.1l16.9-2.5
			c1.9-0.3,3.2-0.8,3.8-1.7c0.7-0.9,1-1.9,1-3c0-3-1.1-5.7-3.2-7.9c-2.1-2.2-5.6-3.3-10.3-3.3c-4.3,0-7.7,1.2-10,3.6
			c-2.3,2.4-3.7,5.4-4.2,9l-11.7-2.7c0.3-2.9,1.2-5.7,2.7-8.2c1.4-2.5,3.3-4.7,5.5-6.4c2.3-1.8,4.9-3.2,7.9-4.2c3-1,6.2-1.5,9.6-1.5
			c4.7,0,8.7,0.6,12,1.9c3.3,1.3,6,2.9,8.1,5c2.1,2.1,3.6,4.5,4.5,7.3c1,2.8,1.4,5.7,1.4,8.7V150c0,2.8,0.1,5,0.3,6.6
			c0.2,1.6,0.3,2.9,0.5,3.6h-12c-0.2-0.8-0.3-1.8-0.5-3.1c-0.1-1.3-0.2-3.1-0.2-5.3c-0.7,1.1-1.6,2.3-2.7,3.5
			c-1.1,1.2-2.5,2.3-4.2,3.4c-1.6,1-3.6,1.9-5.8,2.5c-2.2,0.6-4.7,1-7.5,1c-3.2,0-6.1-0.5-8.6-1.6c-2.6-1-4.7-2.4-6.6-4.1
			c-1.8-1.7-3.2-3.7-4.2-5.9C253.3,148.4,252.8,146.1,252.8,143.5z M275.4,152c2.5,0,4.9-0.3,7.1-1s4.1-1.7,5.7-3.1
			c1.6-1.4,2.9-3.3,3.8-5.7c1-2.4,1.4-5.3,1.4-8.6v-2.9l-19.1,2.9c-2.6,0.4-4.8,1.4-6.5,2.9c-1.7,1.5-2.6,3.7-2.6,6.4
			c0,2.3,0.9,4.4,2.7,6.3C269.8,151.1,272.3,152,275.4,152z"/>
		<path d="M324.6,160.3V66.2h12.2v94.1H324.6z"/>
		<path d="M383.9,107.1c-2.5,0-4.9,0.5-7.2,1.4c-2.3,0.9-4.3,2.3-6,4.1c-1.8,1.8-3.2,4.1-4.2,6.8c-1,2.7-1.6,5.9-1.6,9.6
			c0,3.6,0.5,6.7,1.6,9.4c1,2.7,2.4,5,4.2,6.9c1.7,1.9,3.8,3.3,6.1,4.2c2.3,1,4.8,1.4,7.3,1.4c2.9,0,5.4-0.4,7.5-1.3
			c2-0.9,3.7-1.9,5.1-3.2c1.3-1.3,2.4-2.7,3.2-4.2c0.8-1.5,1.3-2.9,1.7-4.1l10.8,4.7c-0.8,2.3-1.9,4.5-3.4,6.8
			c-1.5,2.3-3.4,4.4-5.7,6.3c-2.3,1.9-5.1,3.4-8.3,4.6c-3.2,1.2-6.8,1.8-10.9,1.8c-4.6,0-8.8-0.8-12.7-2.5c-3.9-1.7-7.2-4-9.9-7
			c-2.8-3-5-6.5-6.6-10.5c-1.6-4-2.4-8.4-2.4-13.2c0-4.9,0.8-9.3,2.4-13.4c1.6-4.1,3.8-7.6,6.6-10.5c2.8-2.9,6.2-5.2,10-6.8
			c3.9-1.6,8-2.5,12.4-2.5c4.2,0,7.8,0.6,11,1.8c3.2,1.2,5.9,2.7,8.2,4.6c2.3,1.9,4.1,4.1,5.5,6.4c1.4,2.4,2.4,4.7,3.1,7.1
			l-11.1,4.7c-0.4-1.6-1-3.1-1.8-4.7c-0.8-1.6-1.8-3-3.2-4.2c-1.3-1.3-3-2.3-4.9-3.1C388.9,107.6,386.6,107.1,383.9,107.1z"/>
		<path d="M438.8,160.3h-12.2V66.2h12.2v38.9c2.3-3.3,5.1-5.6,8.5-7c3.4-1.4,6.9-2.1,10.5-2.1c3.7,0,7,0.6,9.8,1.9
			c2.8,1.3,5.2,3,7,5.2c1.9,2.2,3.2,4.8,4.2,7.9c0.9,3,1.4,6.3,1.4,9.8v39.6h-12.2v-37.6c0-2.2-0.2-4.2-0.7-6.1
			c-0.5-1.9-1.3-3.6-2.5-5s-2.7-2.6-4.6-3.4c-1.9-0.8-4.1-1.2-6.8-1.2c-2.3,0-4.4,0.4-6.2,1.3c-1.8,0.9-3.3,2-4.5,3.5
			c-1.2,1.5-2.1,3.2-2.8,5.2c-0.7,2-1,4.2-1.1,6.5V160.3z"/>
		<path d="M554.1,142.5c-0.9,2.8-2.1,5.4-3.8,7.7c-1.7,2.4-3.7,4.5-6.1,6.2c-2.4,1.8-5.1,3.2-8.1,4.2c-3,1-6.4,1.6-10,1.6
			c-4.2,0-8.1-0.7-12-2.2c-3.8-1.5-7.2-3.6-10.1-6.5c-2.9-2.9-5.2-6.4-6.9-10.5c-1.7-4.2-2.5-8.9-2.5-14.2c0-4.9,0.8-9.4,2.5-13.5
			c1.6-4,3.8-7.5,6.6-10.4c2.7-2.9,5.9-5.2,9.6-6.8c3.6-1.6,7.4-2.4,11.3-2.4c4.8,0,9,0.8,12.8,2.4c3.8,1.6,6.9,3.8,9.4,6.7
			c2.5,2.9,4.4,6.3,5.8,10.3c1.3,4,2,8.5,2,13.3c0,0.8,0,1.5-0.1,2.2c0,0.7-0.1,1.3-0.2,1.7h-47.1c0.1,2.8,0.6,5.3,1.6,7.7
			c1,2.3,2.3,4.4,4,6c1.7,1.7,3.7,3,6,3.9c2.3,0.9,4.7,1.4,7.3,1.4c5.1,0,9-1.2,11.7-3.6c2.7-2.4,4.6-5.4,5.8-9L554.1,142.5z
			 M541.7,122.6c-0.2-4.5-1.7-8.3-4.5-11.4c-2.9-3.1-7.1-4.6-12.6-4.6c-2.6,0-4.9,0.5-7,1.4c-2,0.9-3.8,2.1-5.2,3.6
			c-1.4,1.5-2.6,3.2-3.4,5.1c-0.9,1.9-1.3,3.9-1.4,5.8H541.7z"/>
		<path d="M570.1,160.3V97.8h11.7v8.3c2-3.5,4.7-6,8.3-7.7c3.5-1.6,7.1-2.5,10.7-2.5c3.9,0,7.6,1,11,2.9c3.4,1.9,6,4.9,7.7,9
			c2.5-4.5,5.6-7.6,9.4-9.3c3.7-1.7,7.6-2.5,11.6-2.5c2.7,0,5.3,0.5,7.9,1.4c2.6,1,4.9,2.4,7,4.4c2,1.9,3.7,4.4,4.9,7.4
			c1.2,3,1.8,6.5,1.8,10.6v40.6h-12.1v-39.3c0-4.1-1.1-7.5-3.2-10.2c-2.1-2.7-5.5-4.1-10.1-4.1c-4.3,0-7.8,1.5-10.5,4.5
			c-2.6,3-4,6.7-4,11.2v37.8H610v-39.3c0-4.1-1-7.5-3.1-10.2c-2.1-2.7-5.5-4.1-10.1-4.1c-4.4,0-8,1.5-10.6,4.4
			c-2.6,2.9-4,6.8-4,11.4v37.7H570.1z"/>
		<path d="M683.7,186.4l15.6-33l-26.9-55.6h14l19.5,43.2l18.7-43.2h13.1l-40.7,88.7H683.7z"/>
	</g>
</g>
<g id="Layer_2">
	<g>
		<path class="st0" d="M888.8,9.4c0-7.8-6.1-14.2-13.5-14.2c-7.4,0-13.5,6.4-13.5,14.2s6.1,14.2,13.5,14.2
			C882.7,23.6,888.8,17.2,888.8,9.4z M879.7,9.4c0,2.6-2,4.7-4.5,4.7c-2.5,0-4.5-2.1-4.5-4.7s2-4.7,4.5-4.7
			C877.7,4.7,879.7,6.8,879.7,9.4z"/>
		<path class="st0" d="M794.1,52c0,7.8,6.1,14.2,13.5,14.2s13.5-6.4,13.5-14.2s-6.1-14.2-13.5-14.2S794.1,44.2,794.1,52z M803.1,52
			c0-2.6,2-4.7,4.5-4.7c2.5,0,4.5,2.1,4.5,4.7s-2,4.7-4.5,4.7C805.1,56.7,803.1,54.6,803.1,52z"/>
		<path class="st0" d="M816.6,85.1c0,13,10.1,23.6,22.5,23.6s22.5-10.6,22.5-23.6c0-13-10.1-23.6-22.5-23.6S816.6,72.1,816.6,85.1z
			 M825.6,85.1c0-7.8,6.1-14.2,13.5-14.2s13.5,6.4,13.5,14.2s-6.1,14.2-13.5,14.2S825.6,92.9,825.6,85.1z"/>
		<path class="st0" d="M841.1,176.3c-4.5,8-5,15.6-1.6,22c3.4,6.4,10.1,9.7,18.9,9.7h90.2c8.8,0,15.6-3.5,18.9-9.7
			c3.4-6.1,2.9-13.9-1.6-22l-37.7-68.6V54.3c2.5,0,4.5-2.1,4.5-4.7s-2-4.7-4.5-4.7h-49.6c-2.5,0-4.5,2.1-4.5,4.7s2,4.7,4.5,4.7v53.4
			L841.1,176.3z M876.9,130l10.1-18.4c0.5-0.7,0.7-1.4,0.7-2.4V54.3h31.6v54.8c0,0.9,0.2,1.7,0.7,2.4l10.1,18.4H876.9z"/>
		<path class="st0" d="M858.1,28.3c0,10.4-8.5,18.9-18.9,18.9c-10.4,0-18.9-8.5-18.9-18.9s8.5-18.9,18.9-18.9
			C849.6,9.4,858.1,17.9,858.1,28.3z M852.1,23l-4.5-4L837,31l-5.3-5.5l-4.3,4.2l9.8,10.1L852.1,23z"/>
		<g>
			<path class="st0" d="M859.1,195.2c-2.4,0-6.6-0.4-8-3.1l-0.1-0.1c-1.1-1.8-0.5-5.3,1.6-8.8l21.7-39.3h58.6l21.7,39.2
				c2,3.6,2.5,6.9,1.5,9c-1.2,1.9-4.2,3.1-8.1,3.1H859.1z"/>
			<path class="st1" d="M930.8,147.5l20.7,37.4c1.7,3.1,1.7,5,1.5,5.6c-0.5,0.5-2.1,1.3-5,1.3h-89c-3.1,0-4.7-0.8-5-1.2l-0.1-0.1
				l0-0.1c-0.2-0.5,0-2.6,1.6-5.4l0,0l0,0l20.7-37.4H930.8 M934.9,140.5h-62.7l-22.7,41c-2.7,4.7-3.3,9.3-1.6,12.4
				c1.8,3.3,5.8,4.9,11.1,4.9h89c5.3,0,9.3-1.9,11.1-4.9c1.6-3,1.1-7.5-1.6-12.4L934.9,140.5L934.9,140.5z"/>
		</g>
	</g>
	<g>
		<path d="M1014.7,155.5h-12.4L977,93h13.8l17.8,48.2l17.9-48.2h13.1L1014.7,155.5z"/>
		<path d="M1046.8,138.8c0-2.8,0.5-5.3,1.4-7.5c1-2.2,2.3-4.1,4-5.7s3.7-2.8,6-3.8c2.3-1,4.9-1.6,7.5-2.1l16.9-2.5
			c1.9-0.3,3.2-0.8,3.8-1.7c0.7-0.9,1-1.9,1-3c0-3-1.1-5.7-3.2-7.9c-2.1-2.2-5.6-3.3-10.3-3.3c-4.3,0-7.7,1.2-10,3.6
			c-2.3,2.4-3.7,5.4-4.2,9l-11.7-2.7c0.3-2.9,1.2-5.7,2.7-8.2c1.4-2.5,3.3-4.7,5.5-6.4c2.3-1.8,4.9-3.2,7.9-4.2c3-1,6.2-1.5,9.6-1.5
			c4.7,0,8.7,0.6,12,1.9c3.3,1.3,6,2.9,8.1,5c2.1,2.1,3.6,4.5,4.5,7.3c1,2.8,1.4,5.7,1.4,8.7v31.3c0,2.8,0.1,5,0.3,6.6
			c0.2,1.6,0.3,2.9,0.5,3.6h-12c-0.2-0.8-0.3-1.8-0.5-3.1c-0.1-1.3-0.2-3.1-0.2-5.3c-0.7,1.1-1.6,2.3-2.7,3.5
			c-1.1,1.2-2.5,2.3-4.2,3.4c-1.6,1-3.6,1.9-5.8,2.5c-2.2,0.6-4.7,1-7.5,1c-3.2,0-6.1-0.5-8.6-1.6c-2.6-1-4.7-2.4-6.6-4.1
			c-1.8-1.7-3.2-3.7-4.2-5.9C1047.3,143.7,1046.8,141.3,1046.8,138.8z M1069.4,147.2c2.5,0,4.9-0.3,7.1-1s4.1-1.7,5.7-3.1
			c1.6-1.4,2.9-3.3,3.8-5.7c1-2.4,1.4-5.3,1.4-8.6v-2.9l-19.1,2.9c-2.6,0.4-4.8,1.4-6.5,2.9c-1.7,1.5-2.6,3.7-2.6,6.4
			c0,2.3,0.9,4.4,2.7,6.3C1063.9,146.3,1066.3,147.2,1069.4,147.2z"/>
		<path d="M1118.7,155.5V61.4h12.2v94.1H1118.7z"/>
		<path d="M1178,102.4c-2.5,0-4.9,0.5-7.2,1.4c-2.3,0.9-4.3,2.3-6,4.1c-1.8,1.8-3.2,4.1-4.2,6.8c-1,2.7-1.6,5.9-1.6,9.6
			c0,3.6,0.5,6.7,1.6,9.4c1,2.7,2.4,5,4.2,6.9c1.7,1.9,3.8,3.3,6.1,4.2c2.3,1,4.8,1.4,7.3,1.4c2.9,0,5.4-0.4,7.5-1.3
			c2-0.9,3.7-1.9,5.1-3.2c1.3-1.3,2.4-2.7,3.2-4.2c0.8-1.5,1.3-2.9,1.7-4.1l10.8,4.7c-0.8,2.3-1.9,4.5-3.4,6.8
			c-1.5,2.3-3.4,4.4-5.7,6.3c-2.3,1.9-5.1,3.4-8.3,4.6c-3.2,1.2-6.8,1.8-10.9,1.8c-4.6,0-8.8-0.8-12.7-2.5c-3.9-1.7-7.2-4-9.9-7
			c-2.8-3-5-6.5-6.6-10.5c-1.6-4-2.4-8.4-2.4-13.2c0-4.9,0.8-9.3,2.4-13.4c1.6-4.1,3.8-7.6,6.6-10.5c2.8-2.9,6.2-5.2,10-6.8
			c3.9-1.6,8-2.5,12.4-2.5c4.2,0,7.8,0.6,11,1.8c3.2,1.2,5.9,2.7,8.2,4.6c2.3,1.9,4.1,4.1,5.5,6.4c1.4,2.4,2.4,4.7,3.1,7.1
			l-11.1,4.7c-0.4-1.6-1-3.1-1.8-4.7c-0.8-1.6-1.8-3-3.2-4.2c-1.3-1.3-3-2.3-4.9-3.1C1183,102.8,1180.7,102.4,1178,102.4z"/>
		<path d="M1232.9,155.5h-12.2V61.4h12.2v38.9c2.3-3.3,5.1-5.6,8.5-7c3.4-1.4,6.9-2.1,10.5-2.1c3.7,0,7,0.6,9.8,1.9
			c2.8,1.3,5.2,3,7,5.2c1.9,2.2,3.2,4.8,4.2,7.9c0.9,3,1.4,6.3,1.4,9.8v39.6H1262V118c0-2.2-0.2-4.2-0.7-6.1c-0.5-1.9-1.3-3.6-2.5-5
			s-2.7-2.6-4.6-3.4c-1.9-0.8-4.1-1.2-6.8-1.2c-2.3,0-4.4,0.4-6.2,1.3c-1.8,0.9-3.3,2-4.5,3.5c-1.2,1.5-2.1,3.2-2.8,5.2
			c-0.7,2-1,4.2-1.1,6.5V155.5z"/>
		<path d="M1348.2,137.7c-0.9,2.8-2.1,5.4-3.8,7.7c-1.7,2.4-3.7,4.5-6.1,6.2c-2.4,1.8-5.1,3.2-8.1,4.2c-3,1-6.4,1.6-10,1.6
			c-4.2,0-8.1-0.7-12-2.2c-3.8-1.5-7.2-3.6-10.1-6.5c-2.9-2.9-5.2-6.4-6.9-10.5c-1.7-4.2-2.5-8.9-2.5-14.2c0-4.9,0.8-9.4,2.5-13.5
			c1.6-4,3.8-7.5,6.6-10.4c2.7-2.9,5.9-5.2,9.6-6.8c3.6-1.6,7.4-2.4,11.3-2.4c4.8,0,9,0.8,12.8,2.4c3.8,1.6,6.9,3.8,9.4,6.7
			c2.5,2.9,4.4,6.3,5.8,10.3c1.3,4,2,8.5,2,13.3c0,0.8,0,1.5-0.1,2.2c0,0.7-0.1,1.3-0.2,1.7h-47.1c0.1,2.8,0.6,5.3,1.6,7.7
			c1,2.3,2.3,4.4,4,6c1.7,1.7,3.7,3,6,3.9c2.3,0.9,4.7,1.4,7.3,1.4c5.1,0,9-1.2,11.7-3.6c2.7-2.4,4.6-5.4,5.8-9L1348.2,137.7z
			 M1335.8,117.8c-0.2-4.5-1.7-8.3-4.5-11.4c-2.9-3.1-7.1-4.6-12.6-4.6c-2.6,0-4.9,0.5-7,1.4c-2,0.9-3.8,2.1-5.2,3.6
			c-1.4,1.5-2.6,3.2-3.4,5.1c-0.9,1.9-1.3,3.9-1.4,5.8H1335.8z"/>
		<path d="M1364.2,155.5V93h11.7v8.3c2-3.5,4.7-6,8.3-7.7c3.5-1.6,7.1-2.5,10.7-2.5c3.9,0,7.6,1,11,2.9c3.4,1.9,6,4.9,7.7,9
			c2.5-4.5,5.6-7.6,9.4-9.3c3.7-1.7,7.6-2.5,11.6-2.5c2.7,0,5.3,0.5,7.9,1.4c2.6,1,4.9,2.4,7,4.4c2,1.9,3.7,4.4,4.9,7.4
			c1.2,3,1.8,6.5,1.8,10.6v40.6H1444v-39.3c0-4.1-1.1-7.5-3.2-10.2c-2.1-2.7-5.5-4.1-10.1-4.1c-4.3,0-7.8,1.5-10.5,4.5
			c-2.6,3-4,6.7-4,11.2v37.8h-12.2v-39.3c0-4.1-1-7.5-3.1-10.2c-2.1-2.7-5.5-4.1-10.1-4.1c-4.4,0-8,1.5-10.6,4.4
			c-2.6,2.9-4,6.8-4,11.4v37.7H1364.2z"/>
		<path d="M1477.8,181.7l15.6-33L1466.5,93h14l19.5,43.2l18.7-43.2h13.1l-40.7,88.7H1477.8z"/>
	</g>
</g>
</svg>
